<?xml version="1.0" standalone="no"?><!DOCTYPE svg PUBLIC "-//W3C//DTD SVG 1.1//EN" "http://www.w3.org/Graphics/SVG/1.1/DTD/svg11.dtd"><svg t="1558106519805" class="icon" style="" viewBox="0 0 1024 1024" version="1.1" xmlns="http://www.w3.org/2000/svg" p-id="955" xmlns:xlink="http://www.w3.org/1999/xlink" width="128" height="128"><defs><style type="text/css"></style></defs><path d="M469.363 545.379a185.947 185.947 0 0 1-72.861-147.803c0-96.152 72.666-175.283 166.074-185.62-6.826-0.752-13.73-1.221-20.762-1.221-103.174 0-186.836 83.657-186.836 186.841 0 60.195 28.652 113.97 72.871 147.803 31.553 24.512 71.201 39.033 113.965 39.033 7.031 0 13.926-0.527 20.762-1.299-34.775-3.877-66.836-17.256-93.213-37.734M297.576 769.852C315.467 673.26 440.523 655.522 421 636s-27.333-21.667-27.333-21.667C305.444 652.009 232.43 662.879 214.53 759.48c-5.137 27.764 16.875 53.301 45.117 53.301h54.111c-12.295-10-19.317-26.006-16.182-42.929" fill="#ffffff" opacity=".1" p-id="956"></path><path d="M521.063 609.412c-47.257 0-91.945-15.296-129.244-44.237-25.06-19.196-45.834-44.287-60.076-72.564-14.737-29.258-22.526-62.122-22.526-95.039 0-116.81 95.034-211.841 211.846-211.841 116.807 0 211.836 95.031 211.836 211.841 0 32.917-7.789 65.781-22.525 95.039-14.242 28.277-35.017 53.368-60.077 72.564-36.767 28.526-82.661 44.237-129.234 44.237z m0-373.682c-89.242 0-161.846 72.602-161.846 161.841 0 49.902 23.575 97.735 63.064 127.954l0.14 0.107c28.458 22.099 62.567 33.779 98.642 33.779 36.068 0 70.174-11.681 98.632-33.779l0.141-0.107c39.488-30.219 63.063-78.052 63.063-127.954-0.001-89.239-72.6-161.841-161.836-161.841z" fill="#ffffff" p-id="957"></path><path d="M761.707 837.771H280.408c-21.168 0-41.088-9.354-54.652-25.662-13.327-16.023-18.812-36.866-15.046-57.184 7.71-41.609 23.997-71.049 51.254-92.65 23.753-18.824 52.091-28.941 84.903-40.655 16.115-5.754 32.779-11.703 50.399-19.231 12.697-5.424 27.387 0.472 32.812 13.168 5.424 12.697-0.471 27.388-13.168 32.813-19.02 8.125-37.195 14.614-53.231 20.34-59.479 21.235-92.244 32.933-103.806 95.326-1.438 7.757 2.093 13.417 4.325 16.102 4.036 4.852 9.944 7.635 16.211 7.635h481.299c6.267 0 12.175-2.783 16.211-7.635 2.232-2.685 5.762-8.345 4.325-16.102-11.563-62.394-44.326-74.091-103.807-95.326-16.036-5.726-34.212-12.215-53.231-20.34-12.696-5.425-18.592-20.115-13.168-32.813 5.426-12.697 20.111-18.592 32.813-13.168 17.62 7.528 34.284 13.478 50.399 19.231 32.812 11.714 61.148 21.831 84.902 40.655 27.258 21.602 43.544 51.041 51.254 92.65 3.766 20.317-1.719 41.16-15.046 57.184-13.565 16.309-33.485 25.662-54.653 25.662z" fill="#ffffff" p-id="958"></path><path d="M491.069 372.807c0 20.371-16.509 36.885-36.88 36.885-20.381 0-36.89-16.514-36.89-36.885s16.509-36.885 36.89-36.885c20.372 0 36.88 16.514 36.88 36.885M626.943 372.807c0 20.371-16.504 36.885-36.885 36.885-20.361 0-36.875-16.514-36.875-36.885s16.514-36.885 36.875-36.885c20.381 0 36.885 16.514 36.885 36.885" fill="#ffffff" p-id="959"></path></svg>